# xmcd
#
# Track frame offsets:
# 150
# 48777
# 87302
# 136510
# 166967
# 209377
# 234584
# 256172
# 276957
# 309322
#
# Disc length: 4389 seconds
#
#
# Revision: 1
# Processed by: cddbd v1.5.1PL0 Copyright (c) Steve Scherf et al.
# Submitted via: FreeRIP 2.942 
#
DISCID=7c11230a
DTITLE=Parliament - Gold [CD2]
DYEAR=2005
DGENRE=Funk
TTITLE0=Flash Light (12-inch version)
TTITLE1=Bop Gun (Endangered Species)
TTITLE2=Funkentelechy
TTITLE3=Mr. Wiggles
TTITLE4=Aqua Boogie (A PyschoAlphaDiscoBetaBioAquaDoLoop) (12-inch version)
TTITLE5=Rumpofsteelskin
TTITLE6=Party People (Single Edit)
TTITLE7=Theme From the Black Hole
TTITLE8=The Big Bang Theory
TTITLE9=Agony of DeFeet (Single Edit)
EXTD=
EXTT0=
EXTT1=
EXTT2=
EXTT3=
EXTT4=
EXTT5=
EXTT6=
EXTT7=
EXTT8=
EXTT9=
PLAYORDER=
